<svg width="24" height="24" viewBox="0 0 23 24" fill="none" xmlns="http://www.w3.org/2000/svg">
<path d="M11.3471 6.87519C10.6723 6.87329 10.0038 7.00447 9.38006 7.26121C8.75632 7.51794 8.18961 7.89514 7.71255 8.37113C7.23549 8.84711 6.85749 9.41248 6.6003 10.0347C6.3431 10.6569 6.21178 11.3238 6.2139 11.9968C6.212 12.6696 6.34348 13.3362 6.60079 13.9581C6.8581 14.5801 7.23616 15.1452 7.71322 15.6209C8.19028 16.0965 8.75692 16.4735 9.38056 16.7299C10.0042 16.9864 10.6725 17.1173 11.3471 17.1152C12.0215 17.1171 12.6896 16.986 13.3131 16.7294C13.9365 16.4729 14.503 16.0959 14.9799 15.6203C15.4568 15.1446 15.8347 14.5796 16.0919 13.9578C16.3491 13.3359 16.4805 12.6695 16.4786 11.9968C16.481 11.3238 16.3498 10.6571 16.0928 10.0348C15.8358 9.41261 15.4579 8.84723 14.981 8.37122C14.5041 7.89522 13.9375 7.51798 13.3138 7.26123C12.6902 7.00448 12.0218 6.87329 11.3471 6.87519ZM11.3471 15.2752C10.4749 15.2752 9.63849 14.9296 9.02179 14.3145C8.40509 13.6994 8.05863 12.8651 8.05863 11.9952C8.05863 11.1253 8.40509 10.291 9.02179 9.67588C9.63849 9.06076 10.4749 8.71519 11.3471 8.71519C12.2192 8.71519 13.0556 9.06076 13.6723 9.67588C14.289 10.291 14.6355 11.1253 14.6355 11.9952C14.6355 12.8651 14.289 13.6994 13.6723 14.3145C13.0556 14.9296 12.2192 15.2752 11.3471 15.2752ZM19.3676 3.99999C18.8671 3.50079 17.9512 3.60319 17.3256 4.22719C16.7 4.85279 16.5989 5.76159 17.0994 6.26239C17.5999 6.76319 18.5142 6.66239 19.1415 6.03679C19.7671 5.41279 19.8681 4.49919 19.3676 3.99999ZM3.55428 17.9664C2.92707 18.5904 2.82601 19.5008 3.3265 20C3.82698 20.4992 4.74133 20.4 5.36853 19.7744C5.99574 19.1488 6.0968 18.2368 5.59632 17.7376C5.09583 17.2384 4.17989 17.3408 3.55428 17.9664ZM3.3265 3.99999C2.82601 4.49919 2.92707 5.41279 3.55268 6.03679C4.17989 6.66239 5.09423 6.76159 5.59471 6.26239C6.0952 5.76319 5.99414 4.84959 5.36693 4.22559C4.74293 3.60319 3.82698 3.50079 3.3265 3.99999ZM17.3256 19.7712C17.9512 20.3968 18.8655 20.4992 19.3676 20C19.8697 19.5008 19.7671 18.5872 19.1398 17.9616C18.5126 17.336 17.5999 17.2368 17.0978 17.736C16.5957 18.2352 16.7 19.1472 17.3256 19.7712ZM11.3471 3.99679C12.0545 3.99679 12.6304 3.28159 12.6304 2.39679C12.6288 1.51199 12.0545 0.799988 11.3471 0.799988C10.638 0.799988 10.0622 1.51199 10.0622 2.39679C10.0622 3.28159 10.6364 3.99679 11.3471 3.99679ZM11.3471 23.2C12.0545 23.2 12.6304 22.4848 12.6304 21.6C12.6304 20.7152 12.0561 20.0032 11.3487 20.0032C10.6397 20.0032 10.0638 20.7152 10.0638 21.6C10.0622 22.4848 10.6364 23.2 11.3471 23.2ZM3.3265 12C3.3265 11.2944 2.60465 10.72 1.71757 10.72C0.830497 10.72 0.118271 11.2944 0.118271 12C0.118271 12.7072 0.830497 13.28 1.71757 13.28C2.60465 13.28 3.3265 12.7072 3.3265 12ZM22.5759 12C22.5759 11.2944 21.8572 10.72 20.9701 10.72C20.0831 10.72 19.3676 11.2944 19.3676 12C19.3676 12.7072 20.0831 13.28 20.9701 13.28C21.8572 13.28 22.5759 12.7072 22.5759 12Z" fill="white"/>
</svg>
